<svg width="60" height="65" viewBox="0 0 60 65" fill="none" xmlns="http://www.w3.org/2000/svg">
    <path opacity="0.5"
        d="M0 27.3543C0 16.962 2.98023e-07 11.7659 1.2584 10.0178C2.51677 8.26975 7.52773 6.59737 17.5497 3.25257L19.4591 2.61534C24.6833 0.87178 27.2953 0 30 0C32.7047 0 35.3167 0.87178 40.541 2.61534L42.4503 3.25257C52.4723 6.59737 57.4833 8.26975 58.7417 10.0178C60 11.7659 60 16.962 60 27.3543V32.472C60 50.7955 45.87 59.6879 37.0047 63.4637C34.6 64.4878 33.3977 65 30 65C26.6023 65 25.4 64.4878 22.9952 63.4637C14.1299 59.6879 0 50.7955 0 32.472V27.3543Z"
        fill="#E74C3C" fill-opacity="0.9" />
    <path
        d="M36.6673 22.75C36.6673 26.3399 33.6827 29.25 30.0007 29.25C26.3187 29.25 23.334 26.3399 23.334 22.75C23.334 19.1601 26.3187 16.25 30.0007 16.25C33.6827 16.25 36.6673 19.1601 36.6673 22.75Z"
        fill="#E74C3C" />
    <path
        d="M29.9993 48.75C43.3327 48.75 43.3327 45.8399 43.3327 42.25C43.3327 38.6601 37.363 35.75 29.9993 35.75C22.6355 35.75 16.666 38.6601 16.666 42.25C16.666 45.8399 16.666 48.75 29.9993 48.75Z"
        fill="#E74C3C" />
</svg>