<svg width="16" height="12" viewBox="0 0 16 12" fill="none" xmlns="http://www.w3.org/2000/svg">
<path d="M15.734 0.307808C15.9119 0.496839 16.0074 0.748784 15.9996 1.00824C15.9917 1.2677 15.8812 1.51342 15.6922 1.69137L5.34155 11.4468C5.13055 11.6455 4.85017 11.7538 4.56038 11.7484C4.2706 11.743 3.99441 11.6245 3.79092 11.4181L0.292845 7.86782C0.200213 7.7768 0.126615 7.66827 0.0763389 7.54853C0.0260628 7.42879 0.000112773 7.30025 3.66749e-07 7.17039C-0.000112039 7.04052 0.0256154 6.91193 0.0756842 6.79211C0.125753 6.67229 0.199162 6.56362 0.291637 6.47245C0.384112 6.38127 0.493803 6.30941 0.614323 6.26104C0.734843 6.21267 0.863782 6.18876 0.993631 6.19071C1.12348 6.19266 1.25164 6.22043 1.37066 6.27239C1.48967 6.32436 1.59716 6.39948 1.68685 6.49339L4.60278 9.45239L14.3504 0.26604C14.5394 0.0881475 14.7914 -0.00738633 15.0508 0.000446288C15.3103 0.00827891 15.556 0.118837 15.734 0.307808Z" fill="#0584FE"/>
</svg>
