<svg width="20" height="20" viewBox="0 0 20 20" fill="none" xmlns="http://www.w3.org/2000/svg">
    <g clip-path="url(#clip0_1398_3)">
        <path
            d="M16.8623 3.75001L13.4248 0.462512C13.282 0.315435 13.1109 0.198672 12.9219 0.119206C12.7329 0.0397388 12.5298 -0.000800342 12.3248 1.19702e-05H7.3248C6.91694 0.00980359 6.52908 0.178736 6.24411 0.470707C5.95915 0.762679 5.79969 1.15453 5.7998 1.56251V15.3125C5.7998 15.7269 5.96442 16.1243 6.25745 16.4174C6.55048 16.7104 6.9479 16.875 7.3623 16.875H15.7623C16.1767 16.875 16.5741 16.7104 16.8672 16.4174C17.1602 16.1243 17.3248 15.7269 17.3248 15.3125V4.85001C17.3256 4.64499 17.2851 4.4419 17.2056 4.2529C17.1261 4.0639 17.0094 3.89286 16.8623 3.75001ZM15.7623 15.3125H7.3623V1.56251H10.7623V4.85001C10.7623 5.26441 10.9269 5.66184 11.2199 5.95487C11.513 6.24789 11.9104 6.41251 12.3248 6.41251H15.7623V15.3125ZM15.7623 4.85001H12.3248V1.56251L15.7623 4.85001Z"
            fill="black" />
        <path
            d="M12.6373 18.4375H4.2373V4.6875H4.9998V3.125H4.2373C3.8229 3.125 3.42548 3.28962 3.13245 3.58265C2.83942 3.87567 2.6748 4.2731 2.6748 4.6875V18.4375C2.6748 18.8519 2.83942 19.2493 3.13245 19.5424C3.42548 19.8354 3.8229 20 4.2373 20H12.6373C13.0517 20 13.4491 19.8354 13.7422 19.5424C14.0352 19.2493 14.1998 18.8519 14.1998 18.4375V17.65H12.6373V18.4375Z"
            fill="black" />
    </g>
    <defs>
        <clipPath id="clip0_1398_3">
            <rect width="20" height="20" fill="white" />
        </clipPath>
    </defs>
</svg>