<svg width="23" height="17" viewBox="0 0 23 17" fill="none" xmlns="http://www.w3.org/2000/svg">
    <path d="M22.2898 0.436061C22.5419 0.703855 22.6772 1.06078 22.6661 1.42834C22.6549 1.79591 22.4984 2.14401 22.2306 2.39611L7.5672 16.2163C7.26828 16.4978 6.87108 16.6512 6.46054 16.6436C6.05002 16.6359 5.65875 16.468 5.37047 16.1756L0.414864 11.1461C0.283635 11.0171 0.179371 10.8634 0.108147 10.6937C0.0369223 10.5241 0.000159762 10.342 5.19559e-07 10.158C-0.000158722 9.97407 0.0362885 9.7919 0.107219 9.62215C0.17815 9.45241 0.282146 9.29846 0.413153 9.1693C0.544159 9.04013 0.699555 8.93833 0.870291 8.8698C1.04103 8.80128 1.22369 8.76741 1.40764 8.77017C1.5916 8.77293 1.77316 8.81227 1.94177 8.88588C2.11037 8.95951 2.26264 9.06593 2.3897 9.19897L6.52061 13.3909L20.3297 0.37689C20.5975 0.124876 20.9545 -0.010464 21.322 0.000632241C21.6896 0.0117285 22.0377 0.168352 22.2898 0.436061Z" fill="#E74C3C"/>
</svg>
