<svg xmlns="http://www.w3.org/2000/svg" xmlns:xlink="http://www.w3.org/1999/xlink" width="40px" height="80px" viewBox="0 0 40 80" version="1.1">
    <g id="Page-1" stroke="none" stroke-width="1" fill="none" fill-rule="evenodd">
        <g id="Логистика-Copy-32" transform="translate(-1663.000000, -431.000000)">
            <g id="Group-18-Copy" transform="translate(1683.000000, 471.000000) scale(-1, 1) translate(-1683.000000, -471.000000) translate(1663.000000, 431.000000)">
                <path d="M0,80 C22.09139,80 40,62.09139 40,40 C40,17.90861 19.5656759,0 0,0 C0,0 0,80 0,80 Z" id="Oval" fill-opacity="0.47104458" fill="#A6B7D4"/>
                <path d="M11.587233,38.9505216 C11.0752499,39.3750862 10.8192583,39.7928112 10.8192583,40.2036967 C10.8192583,40.6145821 11.0858759,41.0802391 11.6191109,41.6006674 L21.5575601,51.6012399 C22.0714612,52.1183532 22.0797601,52.9507677 21.576271,53.478024 C21.0876907,53.9896678 20.2768489,54.0083644 19.7652052,53.5197841 C19.7582536,53.5131459 19.7513769,53.5064296 19.7445765,53.4996366 L7.85579033,41.6237568 C7.07431768,40.8431325 7.07362995,39.5768028 7.85425423,38.7953301 C7.85645404,38.7931279 7.85865898,38.7909309 7.86086904,38.788739 L19.9371945,26.8116568 C20.4528237,26.300265 21.2853887,26.3037001 21.7967805,26.8193294 C21.8038361,26.8264435 21.8108102,26.833638 21.8177014,26.8409115 C22.332564,27.3843392 22.3205941,28.2390682 21.7907158,28.767865 L11.587233,38.9505216 L11.587233,38.9505216 Z" id="Path-12" fill="#FFFFFF"/>
            </g>
        </g>
    </g>
</svg>