<svg width="35" height="35" viewBox="0 0 35 35" fill="none" xmlns="http://www.w3.org/2000/svg">
    <g clip-path="url(#clip0_1761_1147)">
        <path d="M35 17.5C35 35 35 35 17.5 35C0 35 0 35 0 17.5C0 0 0 0 17.5 0C35 0 35 0 35 17.5Z" fill="#E27E35" />
        <path
            d="M20.2418 23.4507C21.6227 23.1362 22.9523 22.5894 24.176 21.8203C25.1022 21.2358 25.3825 20.0122 24.798 19.0825C24.2135 18.1528 22.9899 17.8726 22.0602 18.457C19.2848 20.2036 15.713 20.2002 12.9376 18.457C12.008 17.8726 10.7843 18.1528 10.1998 19.0825C9.61537 20.0088 9.89565 21.2358 10.8219 21.8203C12.0455 22.5894 13.3751 23.1362 14.756 23.4507L10.9723 27.2378C10.1965 28.0136 10.1965 29.268 10.9723 30.0439C11.362 30.4302 11.8678 30.625 12.3737 30.625C12.883 30.625 13.3888 30.4302 13.7785 30.0439L17.5006 26.3218L21.2228 30.0439C21.9987 30.8198 23.2531 30.8198 24.0289 30.0439C24.8048 29.2681 24.8048 28.0103 24.0289 27.2378L20.2418 23.4507ZM17.5006 8.34668C19.049 8.34668 20.3068 9.60449 20.3068 11.1528C20.3068 12.6978 19.049 13.9556 17.5006 13.9556C15.9557 13.9556 14.6945 12.6978 14.6945 11.1528C14.6945 9.60449 15.9557 8.34668 17.5006 8.34668ZM17.5006 17.9238C21.2365 17.9238 24.275 14.8853 24.275 11.1528C24.275 7.41357 21.2365 4.375 17.5006 4.375C13.7648 4.375 10.7262 7.41357 10.7262 11.1494C10.7262 14.8853 13.7648 17.9238 17.5006 17.9238Z"
            fill="white" />
    </g>
    <defs>
        <clipPath id="clip0_1761_1147">
            <rect width="35" height="35" fill="white" />
        </clipPath>
    </defs>
</svg>