<svg width="35" height="35" viewBox="0 0 35 35" fill="none" xmlns="http://www.w3.org/2000/svg">
    <path
        d="M17.5 35C27.165 35 35 27.165 35 17.5C35 7.83502 27.165 0 17.5 0C7.83502 0 0 7.83502 0 17.5C0 27.165 7.83502 35 17.5 35Z"
        fill="url(#paint0_linear_1761_1151)" />
    <path
        d="M26.2332 10.261C26.389 9.25415 25.4317 8.45944 24.5365 8.8525L6.70602 16.681C6.06403 16.9629 6.111 17.9354 6.77683 18.1474L10.4539 19.3184C11.1557 19.5419 11.9156 19.4262 12.5285 19.0029L20.8187 13.2754C21.0687 13.1026 21.3412 13.4581 21.1276 13.6782L15.1601 19.8307C14.5812 20.4276 14.6961 21.439 15.3925 21.8756L22.0737 26.0654C22.8231 26.5352 23.7871 26.0632 23.9272 25.1576L26.2332 10.261Z"
        fill="white" />
    <defs>
        <linearGradient id="paint0_linear_1761_1151" x1="17.5" y1="0" x2="17.5" y2="35" gradientUnits="userSpaceOnUse">
            <stop stop-color="#37BBFE" />
            <stop offset="1" stop-color="#007DBB" />
        </linearGradient>
    </defs>
</svg>