<svg width="76" height="35" viewBox="0 0 76 35" fill="none" xmlns="http://www.w3.org/2000/svg">
    <path
        d="M39.1417 29.3632C33.9521 29.4215 28.2954 29.3049 22.6387 28.955C22.0555 28.8967 21.7056 29.1883 21.3557 29.5382C19.8978 31.1716 18.4399 32.8045 16.9236 34.4368C16.6904 34.67 16.4571 35.1366 16.0489 34.9616C15.6407 34.7861 15.8156 34.3195 15.8156 33.9702C15.8156 32.629 15.7573 31.2294 15.8156 29.8881C15.874 28.8384 15.6407 28.3135 14.416 28.3135C12.9581 28.2552 11.4419 28.0803 9.98398 27.7887C4.96876 26.6224 1.58641 23.8821 1.11987 18.1665C0.886609 15.6588 0.711659 13.2096 1.11987 10.7019C1.93631 5.57009 4.91045 2.65427 10.0423 1.77952C17.5068 0.554872 25.0296 0.146657 32.5525 0.0300235C40.4252 -0.0866095 48.2979 0.146657 56.1707 0.554872C59.9612 0.729822 63.7518 1.25467 67.4841 2.01278C71.9738 2.94585 75.0057 6.38652 75.4151 11.0518C75.6484 13.7344 75.7067 16.417 75.2979 19.0995C74.7742 22.6568 72.7909 25.1639 69.5257 26.6218C66.6682 27.847 63.6346 28.2552 60.6027 28.4879C53.5464 29.0133 46.6068 29.4215 39.1417 29.3632Z"
        fill="#7C529E" />
    <path
        d="M19.8862 21.724C20.9359 21.724 22.1606 20.7327 22.5105 19.7413C22.8604 18.8082 22.1606 18.4 21.5774 17.9335C21.1692 17.5836 20.7027 17.292 20.2944 17.0004C19.4197 16.3589 18.6033 16.3589 17.9618 17.3503C17.6119 17.9335 17.087 17.9335 16.5622 17.7002C15.1043 17.0004 13.9379 16.009 13.2381 14.4928C12.9466 13.8513 12.9466 13.2098 13.6464 12.7433C13.9963 12.51 14.4045 12.2185 14.3462 11.6353C14.2878 10.9355 12.5967 8.54452 11.8969 8.31125C11.6053 8.19462 11.3137 8.19462 11.0221 8.31125C9.44757 8.8361 8.74777 10.1774 9.38925 11.6936C11.2554 16.3589 14.6377 19.5663 19.1864 21.5491C19.478 21.6657 19.7696 21.6657 19.8862 21.724ZM16.5039 8.01967C16.2706 8.07799 15.7458 7.84472 15.7458 8.36957C15.7458 8.71947 16.154 8.66115 16.4456 8.71947C19.7696 9.24432 21.3441 10.8189 21.7524 14.2012C21.8107 14.4928 21.694 14.9593 22.1023 15.0176C22.5688 15.0176 22.4522 14.5511 22.4522 14.2595C22.5105 11.0521 19.7113 8.1363 16.5039 8.01967ZM40.7052 14.901V9.94411C40.7052 8.95273 41.0557 8.1363 42.1631 8.1363C43.2128 8.1363 43.5044 8.89442 43.5044 9.8858V10.5273C43.5044 12.0435 43.5044 12.0435 44.904 11.6353C46.8285 11.0521 48.6946 11.8102 49.6276 13.5597C50.7357 15.6591 50.8529 17.7585 49.6276 19.8579C48.403 21.9573 46.0703 22.5988 43.9715 21.3158C43.621 21.0826 43.5044 20.9659 43.2128 21.3741C42.8046 21.9573 42.1631 22.0156 41.5217 21.724C40.8796 21.4325 40.7052 20.8493 40.7052 20.1495V14.901ZM47.6449 16.7088C47.6449 15.1343 46.7701 13.968 45.6038 13.9096C44.3792 13.8513 43.4461 14.9593 43.4461 16.5339C43.4461 18.0507 44.3208 19.2748 45.4872 19.3331C46.7118 19.4497 47.6449 18.2834 47.6449 16.7088ZM30.2083 16.7671C31.1413 14.3179 31.8994 12.2768 32.6575 10.1774C32.7742 9.82748 32.8908 9.47758 33.0658 9.12768C33.4157 8.31125 33.9988 7.84472 34.9319 8.19462C35.9233 8.54452 36.0399 9.30263 35.7483 10.2357C34.8153 12.685 33.8239 15.1343 32.8908 17.6419C32.4826 18.6916 32.0744 19.7413 31.6662 20.7327C31.4329 21.3158 31.0247 21.7824 30.3249 21.8407C29.5085 21.8407 29.1002 21.3736 28.867 20.6744C27.5257 17.2337 26.1261 13.7347 24.7848 10.294C24.4349 9.36095 24.6099 8.54452 25.6596 8.19462C26.7093 7.84472 27.1758 8.4862 27.5257 9.36095C28.3421 11.6936 29.2169 14.0263 30.2083 16.7671ZM56.9172 17.5836H54.4096C53.7681 17.5836 53.7098 17.8752 54.0014 18.3417C54.5262 19.3331 56.0425 19.7413 57.3254 19.2748C57.792 19.0998 58.2002 18.8665 58.6667 18.6333C59.3088 18.2828 59.8919 18.3417 60.3002 18.9832C60.7667 19.683 60.4751 20.2661 59.8919 20.6744C58.0252 21.9573 55.9841 22.3655 53.8848 21.4908C51.8437 20.616 50.9689 18.8665 50.9689 16.7088C50.9106 13.9096 52.8351 11.6936 55.3427 11.402C57.908 11.1688 60.1829 12.9183 60.6495 15.5425C60.9411 17.0004 60.5328 17.5253 59.0166 17.5836H56.9172ZM55.6926 15.7174C55.9258 15.7174 56.2174 15.7758 56.4507 15.7174C56.9172 15.6591 57.617 16.009 57.7336 15.4842C57.9086 14.7844 57.3254 14.2595 56.7423 13.968C55.9264 13.5597 55.1677 13.6181 54.4685 14.2595C54.118 14.6094 53.7098 15.0176 53.8853 15.5425C54.0603 16.009 54.5846 15.7174 54.9928 15.7758C55.226 15.7758 55.4593 15.7174 55.6926 15.7174Z"
        fill="white" />
    <path
        d="M19.8868 21.724C19.7119 21.6651 19.4786 21.6651 19.187 21.5491C14.58 19.5663 11.256 16.3589 9.38985 11.6936C8.74837 10.1191 9.38985 8.8361 11.0227 8.31125C11.3143 8.19462 11.6059 8.19462 11.8975 8.31125C12.5973 8.54452 14.2884 10.9355 14.3468 11.6353C14.4051 12.1601 13.9969 12.4517 13.647 12.7433C12.9472 13.2098 12.9472 13.793 13.2387 14.4928C13.9385 16.009 15.0465 17.0587 16.5628 17.7002C17.0876 17.9335 17.6125 17.9335 17.9624 17.3503C18.6039 16.3589 19.4203 16.4172 20.295 17.0004C20.7616 17.292 21.1698 17.5836 21.578 17.9335C22.1612 18.4 22.861 18.7493 22.5111 19.7413C22.1612 20.7332 20.9365 21.724 19.8868 21.724ZM61.5831 16.5339V13.0349C61.5831 12.3934 61.8164 11.9269 62.3996 11.6353C63.041 11.3437 63.6825 11.402 64.0907 11.9269C64.4406 12.4517 64.615 12.2185 64.9066 11.9269C65.3148 11.577 65.8402 11.402 66.4234 11.4603C67.0649 11.577 67.4731 11.9269 67.5897 12.5684C67.7058 13.2098 67.4731 13.7347 66.9477 13.8513C64.5567 14.4345 64.2068 16.0673 64.44 18.1662C64.4984 18.9249 64.4984 19.683 64.3817 20.3828C64.2651 21.2575 63.7397 21.7818 62.8649 21.724C62.0491 21.6651 61.6403 21.082 61.582 20.2661C61.5831 19.0998 61.5831 17.8168 61.5831 16.5339ZM36.7403 17.0004V13.6764C36.7403 12.7433 37.1485 12.1601 38.1399 12.1601C39.073 12.1601 39.4812 12.7433 39.4812 13.6181V20.3245C39.4812 21.2581 39.0146 21.8413 38.0816 21.8413C37.1485 21.7824 36.7403 21.1992 36.7403 20.2667V17.0004ZM16.5045 8.01967C19.7119 8.1363 22.5111 11.0521 22.4527 14.2595C22.4527 14.5511 22.5694 15.0176 22.1028 15.0176C21.6363 15.0176 21.7529 14.5511 21.7529 14.2012C21.3447 10.8189 19.7702 9.24432 16.4461 8.71947C16.1546 8.66115 15.7463 8.71947 15.7463 8.36957C15.8047 7.84472 16.2712 8.07799 16.5045 8.01967ZM39.7144 9.71085C39.5984 10.5856 39.1902 11.1688 38.2565 11.2271C37.3818 11.2854 36.682 10.5856 36.682 9.71085C36.682 8.8361 37.4401 8.07798 38.2565 8.1363C39.073 8.25293 39.5978 8.77778 39.7144 9.71085Z"
        fill="white" />
    <path
        d="M20.819 13.6762C20.7607 13.9095 20.9357 14.3177 20.5274 14.376C20.0026 14.4343 20.1192 13.9678 20.0609 13.6762C19.711 11.6351 19.0112 10.877 16.9118 10.4105C16.6202 10.3522 16.1537 10.4105 16.212 9.94396C16.2703 9.47743 16.7369 9.65238 17.0285 9.71069C19.1278 9.94396 20.819 11.6935 20.819 13.6762Z"
        fill="white" />
    <path
        d="M19.2487 13.3259C19.2487 13.5592 19.2487 13.8508 18.8988 13.9091C18.6656 13.9091 18.5489 13.7341 18.4906 13.5009C18.4323 12.6261 17.9658 12.1596 17.091 12.0429C16.8578 11.9846 16.5662 11.9263 16.6828 11.5764C16.7411 11.3431 16.9744 11.3431 17.2077 11.3431C18.199 11.2848 19.2487 12.3345 19.2487 13.3259Z"
        fill="white" />
</svg>