<svg width="39" height="22" viewBox="0 0 39 22" fill="none" xmlns="http://www.w3.org/2000/svg">
    <path
        d="M33.458 13.9887C34.7476 15.2477 36.1086 16.4322 37.2652 17.8182C37.7761 18.4342 38.2598 19.0697 38.6299 19.7845C39.1542 20.8006 38.6793 21.9187 37.7682 21.9794L32.1047 21.9768C30.644 22.098 29.4787 21.51 28.4989 20.5112C27.7148 19.7125 26.9886 18.8625 26.2346 18.0368C25.9255 17.6994 25.602 17.3819 25.2155 17.1308C24.4424 16.629 23.7713 16.7826 23.3294 17.589C22.8795 18.4092 22.7774 19.3173 22.7332 20.2313C22.6725 21.5649 22.2694 21.9156 20.9298 21.9766C18.0669 22.1116 15.3498 21.6785 12.8257 20.2343C10.6004 18.9611 8.87486 17.1637 7.37283 15.1288C4.44858 11.1666 2.20906 6.81272 0.196338 2.33686C-0.25673 1.32845 0.0746238 0.787155 1.18729 0.767945C3.03486 0.73203 4.88221 0.734612 6.73199 0.765364C7.48293 0.776373 7.98004 1.20704 8.27001 1.91645C9.26961 4.37434 10.4928 6.7128 12.028 8.88034C12.4369 9.4574 12.8538 10.0345 13.4475 10.4407C14.1042 10.8904 14.6043 10.7414 14.9133 10.0097C15.1093 9.54578 15.1952 9.04609 15.2394 8.54929C15.3858 6.8399 15.4051 5.1334 15.1483 3.43001C14.9907 2.36693 14.3919 1.67871 13.3311 1.47758C12.7898 1.375 12.8704 1.17356 13.1325 0.864603C13.5877 0.331733 14.0159 0 14.8694 0H21.27C22.2777 0.198858 22.5014 0.651546 22.6394 1.66543L22.6449 8.77518C22.6339 9.16766 22.8409 10.3325 23.5479 10.5922C24.1137 10.7772 24.4867 10.3245 24.8262 9.96574C26.3587 8.33927 27.4525 6.41706 28.4296 4.42666C28.8632 3.55142 29.2361 2.64255 29.5975 1.73437C29.8652 1.0605 30.2853 0.728917 31.0444 0.743572L37.2046 0.749038C37.3873 0.749038 37.5721 0.751696 37.749 0.781992C38.7871 0.958906 39.0716 1.40544 38.7509 2.4191C38.2458 4.00943 37.2629 5.33476 36.3018 6.66618C35.2745 8.08764 34.1757 9.46051 33.157 10.8904C32.2209 12.1964 32.2953 12.8545 33.458 13.9887Z"
        fill="#436EAB" />
</svg>