<svg width="150" height="150" viewBox="0 0 150 150" fill="none" xmlns="http://www.w3.org/2000/svg">
    <rect x="1" y="1" width="148" height="148" rx="74" fill="white" stroke="#E74C3C" stroke-width="2" />
    <path
        d="M90.45 65.0983L91.6088 63.9397C93.5283 62.0201 96.6408 62.0201 98.5603 63.9397C100.48 65.8593 100.48 68.9717 98.5603 70.8912L97.4018 72.05M90.45 65.0983C90.45 65.0983 90.595 67.5603 92.7673 69.7327C94.9398 71.905 97.4018 72.05 97.4018 72.05M90.45 65.0983L79.7985 75.7497C79.077 76.4712 78.7163 76.832 78.406 77.2297C78.0403 77.699 77.7265 78.2067 77.4705 78.7437C77.2535 79.1992 77.092 79.683 76.7695 80.651L75.7365 83.75L75.4023 84.7525M97.4018 72.05L86.7503 82.7015C86.0288 83.423 85.668 83.7837 85.2703 84.094C84.801 84.4597 84.2933 84.7735 83.7563 85.0295C83.3008 85.2465 82.817 85.408 81.849 85.7305L78.75 86.7635L77.7475 87.0977M75.4023 84.7525L75.068 85.7552C74.9093 86.2315 75.0333 86.7567 75.3883 87.1117C75.7433 87.4667 76.2685 87.5907 76.7448 87.432L77.7475 87.0977M75.4023 84.7525L77.7475 87.0977"
        stroke="#E74C3C" stroke-width="3.75" />
    <path d="M65 77.5H71.25" stroke="#E74C3C" stroke-width="3.75" stroke-linecap="round" />
    <path d="M65 67.5H81.25" stroke="#E74C3C" stroke-width="3.75" stroke-linecap="round" />
    <path d="M65 87.5H68.75" stroke="#E74C3C" stroke-width="3.75" stroke-linecap="round" />
    <path opacity="0.5"
        d="M52.5 70C52.5 60.5719 52.5 55.8579 55.4289 52.9289C58.3579 50 63.0719 50 72.5 50H77.5C86.928 50 91.6422 50 94.571 52.9289C97.5 55.8579 97.5 60.5719 97.5 70V80C97.5 89.428 97.5 94.1422 94.571 97.071C91.6422 100 86.928 100 77.5 100H72.5C63.0719 100 58.3579 100 55.4289 97.071C52.5 94.1422 52.5 89.428 52.5 80V70Z"
        stroke="#E74C3C" stroke-width="3.75" />
</svg>