<svg width="150" height="150" viewBox="0 0 150 150" fill="none" xmlns="http://www.w3.org/2000/svg">
    <rect x="1" y="1" width="148" height="148" rx="74" fill="white" stroke="#E74C3C" stroke-width="2" />
    <path
        d="M100.312 90.9375L76.0556 66.6806C76.575 65.1712 76.875 63.5606 76.875 61.875C76.875 53.6044 70.1456 46.875 61.875 46.875C60.6337 46.875 59.3606 47.0419 58.0912 47.3738C57.4406 47.5425 56.9306 48.0469 56.7544 48.6975C56.5781 49.3444 56.7619 50.0381 57.2381 50.5144L62.1975 55.4738C62.9044 56.1825 63.2944 57.1237 63.2944 58.125C63.2944 59.1263 62.9044 60.0675 62.1956 60.7762L60.7762 62.1975C60.0675 62.9044 59.1263 63.2944 58.125 63.2944C57.1237 63.2944 56.1825 62.9044 55.4738 62.1975L50.5144 57.2362C50.1581 56.88 49.68 56.6869 49.1888 56.6869C49.0256 56.6869 48.8606 56.7075 48.6975 56.7525C48.0469 56.9306 47.5425 57.4406 47.3738 58.0912C47.0419 59.3606 46.875 60.6337 46.875 61.875C46.875 70.1456 53.6044 76.875 61.875 76.875C63.5606 76.875 65.1712 76.575 66.6806 76.0556L90.9375 100.312C92.2313 101.606 93.9281 102.255 95.625 102.255C97.3219 102.255 99.0187 101.608 100.312 100.312C102.902 97.7231 102.902 93.5269 100.312 90.9375ZM95.625 97.5C94.59 97.5 93.75 96.66 93.75 95.625C93.75 94.59 94.59 93.75 95.625 93.75C96.66 93.75 97.5 94.59 97.5 95.625C97.5 96.66 96.66 97.5 95.625 97.5Z"
        fill="#E74C3C" />
</svg>