<svg width="150" height="150" viewBox="0 0 150 150" fill="none" xmlns="http://www.w3.org/2000/svg">
    <rect x="1" y="1" width="148" height="148" rx="74" fill="white" stroke="#E74C3C" stroke-width="2" />
    <mask id="mask0_1852_67" style="mask-type:luminance" maskUnits="userSpaceOnUse" x="50" y="50" width="50"
        height="50">
        <path d="M100 50.3125H50V99.7443H100V50.3125Z" fill="white" />
    </mask>
    <g mask="url(#mask0_1852_67)">
        <path
            d="M99.9645 53.7143C99.7071 55.3751 99.0655 56.9773 97.9514 58.2329C95.767 60.8205 93.339 63.1766 90.714 65.3153C86.604 68.7976 82.3567 72.1183 78.1548 75.4881C75.3253 77.6439 72.4353 79.7198 69.5567 81.808C68.2122 83.0403 66.8928 84.6049 64.8507 84.3704C61.9961 83.6095 62.9531 79.9453 64.4283 78.2954C66.6524 75.469 69.025 72.7608 71.444 70.0996C77.3883 63.5285 88.242 50.497 97.5648 50.3374C99.2629 50.6623 100.045 52.0336 99.9645 53.7143Z"
            fill="#E74C3C" />
        <path
            d="M95.7037 86.5721C95.7357 87.8934 95.1887 88.9002 94.1757 89.6953C90.8835 93.0364 84.1245 78.8286 82.5302 76.4539C82.0074 75.4021 81.9561 73.9846 82.8747 73.183C84.6713 71.5949 86.486 70.0273 88.2959 68.4543C89.4866 67.2419 91.3009 65.9755 92.3196 68.1077C93.8713 74.1464 95.2101 80.3374 95.7037 86.5721Z"
            fill="#E74C3C" />
        <path
            d="M60.2012 53.0746C60.3197 50.9934 62.9838 50.2459 64.7084 50.7795C70.0837 52.2666 75.443 53.9319 80.6034 56.0403C81.6504 56.6664 81.8417 57.8303 80.9919 58.7024C78.9 60.8349 76.6944 62.8572 74.6504 65.0379C73.9529 65.7787 73.5699 65.8937 72.729 65.3341C71.7822 64.7041 70.8479 64.0412 69.9842 63.3034C67.6593 60.9572 60.4275 56.0862 60.2012 53.0746Z"
            fill="#E74C3C" />
        <path
            d="M68.8379 96.1862C68.8763 95.6125 69.2881 95.124 69.7871 94.6813C73.2513 91.6953 76.6014 88.5905 79.8263 85.348C80.3263 84.8671 80.8744 84.4338 81.4204 84.004C82.7094 82.8961 84.1353 84.509 82.8998 85.656C79.2081 89.3095 75.4613 92.908 71.7905 96.5824C70.9965 97.6034 68.8426 98.0401 68.8379 96.1862Z"
            fill="#E74C3C" />
        <path
            d="M63.7112 63.8722C60.8633 67.7849 57.0755 71.0602 53.8888 74.737C53.271 75.377 52.7559 76.1799 51.9442 76.5892C50.9235 77.1859 49.5877 75.9653 50.1683 74.9171C50.3786 74.4936 50.7174 74.1186 51.0541 73.7758C53.9998 70.9849 56.68 67.9357 59.5039 65.0249C60.5012 64.1699 63.0264 61.3534 63.7112 63.8722Z"
            fill="#E74C3C" />
        <path
            d="M63.6106 87.5741C62.5321 89.3693 60.5529 90.7123 59.1201 92.2584C57.5248 93.6361 56.2261 95.4568 54.3476 96.4529C53.9354 96.6426 53.5002 96.6071 53.1536 96.2628C52.4111 95.5277 53.1761 94.5353 53.7204 93.9519C56.243 91.5824 58.7863 89.235 61.327 86.8849C62.0801 85.9586 63.592 86.039 63.6106 87.5741Z"
            fill="#E74C3C" />
        <path
            d="M74.8221 85.3261C74.5436 90.5872 68.7619 87.8676 69.5766 83.8326C69.8674 82.6611 71.1694 82.1168 71.9971 81.346C72.5906 80.8839 73.2498 81.0695 73.8581 81.2826C74.6728 81.7534 74.5473 84.3043 74.8221 85.3261Z"
            fill="#E74C3C" />
        <path
            d="M59.9492 74.1673C60.8924 71.6671 63.6078 71.8324 65.5924 72.9876C68.0854 74.3496 65.1211 76.4844 64.0367 77.7387C63.8816 77.8951 63.5357 77.9916 63.3213 77.9387C61.3459 77.555 60.437 76.0465 59.9492 74.1673Z"
            fill="#E74C3C" />
        <path
            d="M83.226 99.7171C81.7094 99.7916 81.3612 98.2959 82.2952 97.4137C82.8166 96.9325 83.3378 96.451 83.8488 95.9589C84.9568 94.8914 86.0571 93.8159 87.1641 92.7474C87.5975 92.2859 88.3615 92.0771 88.819 92.5633C89.3159 93.0131 89.1296 93.7772 88.6703 94.2177C87.5178 95.4697 86.3608 96.7175 85.2071 97.9684C84.6951 98.5959 83.9206 99.4331 83.226 99.7171Z"
            fill="#E74C3C" />
        <path
            d="M53.9208 61.1967C52.5913 61.2216 51.9837 59.9036 52.7626 59.0077C53.072 58.6524 53.4338 58.341 53.7852 58.0244C54.6722 57.2701 55.49 56.4128 56.4423 55.7436C57.4495 55.1361 58.6018 56.3083 58.0019 57.3104C57.0741 58.5266 55.8888 59.5494 54.8209 60.6444C54.5292 60.9238 54.1186 61.079 53.9208 61.1967Z"
            fill="#E74C3C" />
    </g>
</svg>