<svg width="65" height="65" viewBox="0 0 65 65" fill="none" xmlns="http://www.w3.org/2000/svg">
    <path
        d="M23.2478 11.0772C27.3644 3.69241 29.4228 0 32.5002 0C35.5775 0 37.6356 3.69241 41.7521 11.0772L42.8173 12.9878C43.9869 15.0863 44.5719 16.1356 45.4839 16.8279C46.396 17.5202 47.5319 17.7772 49.8036 18.2912L51.8714 18.7591C59.8656 20.5678 63.8627 21.4722 64.8133 24.5302C65.7644 27.5881 63.0396 30.7747 57.5898 37.1471L56.1797 38.7961C54.6311 40.6068 53.8568 41.5123 53.5086 42.6327C53.16 43.7528 53.2771 44.961 53.5115 47.3769L53.7243 49.5768C54.5486 58.0796 54.9605 62.331 52.4706 64.2209C49.9811 66.1108 46.2388 64.3875 38.754 60.9412L36.8178 60.0499C34.6907 59.0704 33.6275 58.5809 32.5002 58.5809C31.3728 58.5809 30.3093 59.0704 28.1825 60.0499L26.246 60.9412C18.7612 64.3875 15.0189 66.1108 12.5293 64.2209C10.0396 62.331 10.4516 58.0796 11.2755 49.5768L11.4887 47.3769C11.7229 44.961 11.8399 43.7528 11.4916 42.6327C11.1432 41.5123 10.3689 40.6068 8.82024 38.7961L7.41035 37.1471C1.96058 30.7747 -0.764302 27.5881 0.186608 24.5302C1.13756 21.4722 5.13454 20.5678 13.1285 18.7591L15.1967 18.2912C17.4681 17.7772 18.604 17.5202 19.516 16.8279C20.428 16.1356 21.013 15.0863 22.1826 12.9878L23.2478 11.0772Z"
        fill="#E74C3C" />
</svg>