<svg width="65" height="65" viewBox="0 0 65 65" fill="none" xmlns="http://www.w3.org/2000/svg">
    <g clip-path="url(#clip0_1756_762)">
        <path
            d="M32.3282 48.5195C33.0465 48.5195 33.7354 48.2342 34.2433 47.7263C34.7512 47.2184 35.0365 46.5295 35.0365 45.8112L35.0365 32.2695C35.0364 31.5513 34.7509 30.8625 34.243 30.3547L26.118 22.2297C25.6072 21.7364 24.9231 21.4634 24.2129 21.4696C23.5028 21.4757 22.8235 21.7606 22.3214 22.2627C21.8192 22.7649 21.5344 23.4442 21.5282 24.1543C21.5221 24.8644 21.7951 25.5485 22.2884 26.0593L29.6199 33.3908L29.6199 45.8112C29.6199 46.5295 29.9052 47.2184 30.4131 47.7263C30.921 48.2342 31.6099 48.5195 32.3282 48.5195ZM0.337359 37.3287C1.26705 43.217 3.79838 48.7363 7.6544 53.2825C11.5104 57.8287 16.5426 61.2268 22.2003 63.105C27.858 64.9832 33.9232 65.269 39.7325 63.9313C45.5418 62.5937 50.8712 59.684 55.1378 55.5206L55.1378 62.0612C55.1378 62.7795 55.4231 63.4684 55.931 63.9763C56.4389 64.4842 57.1278 64.7695 57.8461 64.7695C58.5644 64.7695 59.2533 64.4842 59.7612 63.9763C60.2691 63.4684 60.5544 62.7795 60.5544 62.0612L60.5544 51.2279C60.5544 49.7913 59.9838 48.4135 58.9679 47.3977C57.9521 46.3819 56.5744 45.8112 55.1378 45.8112L44.3044 45.8112C43.5861 45.8112 42.8973 46.0965 42.3894 46.6044C41.8815 47.1124 41.5961 47.8012 41.5961 48.5195C41.5961 49.2378 41.8815 49.9267 42.3894 50.4346C42.8973 50.9425 43.5861 51.2279 44.3044 51.2279L51.7551 51.2279C47.4271 55.6218 41.7279 58.4052 35.6017 59.117C29.4755 59.8288 23.2899 58.4262 18.0699 55.1416C12.8498 51.857 8.90861 46.8876 6.89922 41.0566C4.88983 35.2257 4.93285 28.8833 7.02118 23.0801C9.10951 17.277 13.1178 12.3615 18.3819 9.14806C23.6461 5.9346 29.8501 4.61606 35.9661 5.4109C42.0821 6.20574 47.743 9.06625 52.0109 13.5185C56.2788 17.9707 58.8975 23.7475 59.4332 29.8916C59.5034 30.5518 59.818 31.1618 60.3152 31.6018C60.8123 32.0419 61.456 32.28 62.1199 32.2695C62.4986 32.2685 62.873 32.1886 63.2192 32.0349C63.5654 31.8812 63.8758 31.6571 64.1306 31.3768C64.3854 31.0966 64.579 30.7663 64.6991 30.4071C64.8192 30.0478 64.8632 29.6675 64.8282 29.2904C64.3999 24.9748 63.1123 20.7886 61.0411 16.9784C58.9699 13.1683 56.1572 9.8111 52.7685 7.10479C49.3798 4.39848 45.4837 2.39774 41.3099 1.22044C37.136 0.0431418 32.7687 -0.286891 28.4653 0.249768C24.1619 0.786431 20.0094 2.17893 16.2525 4.34525C12.4956 6.51156 9.21021 9.40786 6.58996 12.8635C3.96971 16.3192 2.06757 20.2643 0.995594 24.4665C-0.0763823 28.6686 -0.296506 33.0428 0.348185 37.3314L0.337359 37.3287Z"
            fill="#E74C3C" />
    </g>
    <defs>
        <clipPath id="clip0_1756_762">
            <rect width="65" height="65" fill="white" />
        </clipPath>
    </defs>
</svg>