<svg width="65" height="51" viewBox="0 0 65 51" fill="none" xmlns="http://www.w3.org/2000/svg">
    <path
        d="M0 28.3978C0 29.3017 0.563995 30.1096 1.41248 30.421L5.2782 31.8402C5.56899 31.1455 5.99546 30.4946 6.56007 29.93C7.68806 28.802 9.18785 28.1807 10.7832 28.1807C12.3784 28.1807 13.8782 28.802 15.0062 29.93L26.8373 41.7609C28.502 43.4256 28.9758 45.8363 28.2604 47.9267C29.9806 49.1864 32.288 49.4035 34.2363 48.424L50.5074 40.2434C53.1658 38.907 54.2649 35.8609 53.3649 33.2414C53.3575 33.2414 53.3499 33.2417 53.3426 33.2417C51.1767 33.2417 49.1361 32.2899 47.744 30.6302L36.5429 17.2758L34.9612 18.8575C33.8524 19.9662 32.3783 20.577 30.8101 20.577C29.2421 20.577 27.7678 19.9663 26.659 18.8575L26.1196 18.318C25.0108 17.2091 24.4002 15.7349 24.4002 14.1668C24.4002 12.5987 25.0108 11.1245 26.1196 10.0157L30.6108 5.52453L29.6733 4.40694C27.9594 2.34364 25.0462 1.74009 22.6537 2.95279L10.4408 9.14284L2.95989 6.13314C1.54358 5.56333 0.000136842 6.60599 0.000136842 8.13267V28.3978H0Z"
        fill="#E74C3C" />
    <path
        d="M64.9991 27.5199V10.9326C64.9991 9.74231 64.0341 8.77737 62.8438 8.77737H53.2991L43.4813 1.69079C42.4707 0.96129 41.2921 0.603516 40.1193 0.603516C38.6382 0.603516 37.1664 1.17408 36.0534 2.28695L31.616 6.72426L27.2216 11.1187C25.5381 12.8021 25.5381 15.5314 27.2216 17.2148L27.761 17.7543C28.6026 18.596 29.7059 19.0168 30.809 19.0168C31.9122 19.0168 33.0154 18.596 33.857 17.7543L36.6429 14.9685L48.9381 29.6276C49.8548 30.7206 51.1258 31.4131 52.4902 31.6177C52.7709 31.6598 53.0554 31.6817 53.3414 31.6817C53.7522 31.6817 54.1666 31.6375 54.5774 31.547L63.3072 29.6248C64.2953 29.4073 64.9991 28.5318 64.9991 27.5199Z"
        fill="#E74C3C" />
    <path
        d="M19.4935 49.1041C20.355 49.9657 21.4842 50.3964 22.6135 50.3964C23.7427 50.3964 24.872 49.9657 25.7335 49.1041C26.4058 48.4318 26.8145 47.5964 26.9622 46.7252C27.1931 45.3638 26.7843 43.9149 25.7335 42.864L13.9025 31.0331C13.0409 30.1715 11.9117 29.7407 10.7825 29.7407C9.65328 29.7407 8.52406 30.1715 7.6625 31.0331C7.26292 31.4328 6.95722 31.8902 6.74299 32.3782C6.03333 33.9948 6.33903 35.9495 7.6625 37.273L19.4935 49.1041Z"
        fill="#E74C3C" />
</svg>